<svg width="231" height="330" viewBox="0 0 231 330" fill="none" xmlns="http://www.w3.org/2000/svg">
<path d="M33.6528 146.177C33.6528 146.177 25.3248 148.028 20.6978 163.451C16.0708 178.874 -2.74523 245.501 0.339771 260.616C3.42477 275.731 35.9428 294.59 43.9628 296.75L57.0958 260.308L40.7568 249.081L47.2248 212.805L33.6528 146.177Z" fill="#273C75"/>
<path d="M192.968 329.649C192.486 327.916 183.815 255.629 183.815 255.629L189.426 139.39L141.058 122.428L133.402 116.584L84.7848 117.148L79.2768 125.351L33.2418 146.302L49.3258 246.993L49.6348 313.62L49.1948 329.649H192.968Z" fill="#273C75"/>
<path d="M189.425 139.391C189.425 139.391 200.747 140.975 207.359 160.811C213.971 180.647 229.509 252.718 230.501 257.677C231.493 262.636 232.085 283.116 214.826 290.198C198.248 297 180.25 290.198 180.25 290.198V253.71L187.523 245.776L184.674 232.906L189.425 139.391Z" fill="#273C75"/>
<path d="M40.8848 249.064C40.8408 249.157 39.2728 248.364 36.5878 247.522C35.2488 247.092 33.6168 246.704 31.7868 246.393C29.9518 246.113 27.9148 245.93 25.7718 245.944C23.6278 245.981 21.5958 246.212 19.7678 246.535C17.9448 246.889 16.3228 247.315 14.9948 247.777C12.3298 248.682 10.7818 249.512 10.7358 249.42C10.7188 249.388 11.0968 249.167 11.7968 248.791C12.1448 248.598 12.5768 248.376 13.0978 248.158C13.6158 247.936 14.1968 247.655 14.8718 247.429C16.1998 246.918 17.8338 246.448 19.6778 246.063C21.5268 245.709 23.5898 245.46 25.7668 245.423C27.9428 245.409 30.0098 245.61 31.8668 245.92C33.7188 246.261 35.3628 246.693 36.7028 247.172C37.3828 247.381 37.9708 247.649 38.4938 247.859C39.0198 248.064 39.4578 248.276 39.8098 248.461C40.5178 248.819 40.9008 249.031 40.8848 249.064Z" fill="#263238"/>
<path d="M41.1128 248.922C41.0358 248.988 40.0658 247.775 38.1938 246.143C37.2648 245.32 36.0788 244.435 34.7008 243.552C33.3068 242.694 31.7118 241.851 29.9578 241.147C28.1958 240.462 26.4548 239.987 24.8508 239.66C23.2408 239.363 21.7698 239.199 20.5298 239.165C18.0488 239.077 16.5118 239.3 16.4998 239.199C16.4948 239.163 16.8748 239.09 17.5698 238.987C17.9168 238.93 18.3428 238.875 18.8418 238.855C19.3398 238.829 19.9078 238.772 20.5368 238.797C21.7958 238.784 23.2948 238.913 24.9378 239.189C26.5758 239.495 28.3538 239.965 30.1488 240.663C31.9358 241.38 33.5548 242.252 34.9588 243.148C36.3468 244.07 37.5288 245 38.4388 245.87C38.9148 246.282 39.2908 246.712 39.6368 247.071C39.9868 247.427 40.2608 247.758 40.4758 248.037C40.9128 248.586 41.1398 248.899 41.1128 248.922Z" fill="#263238"/>
<path d="M220.175 247.727C220.157 247.763 219.549 247.487 218.447 247.001C217.345 246.515 215.75 245.812 213.733 245.07C211.718 244.328 209.275 243.544 206.492 243.011C205.102 242.742 203.627 242.538 202.091 242.454C200.549 242.348 198.975 242.418 197.378 242.734C190.973 244.044 185.857 247.642 183.256 250.993C181.917 252.669 181.249 254.285 180.803 255.391C180.468 256.537 180.291 257.183 180.251 257.175C180.233 257.172 180.255 257.007 180.314 256.694C180.378 256.383 180.457 255.916 180.61 255.328C181.002 254.186 181.633 252.509 182.964 250.768C185.554 247.282 190.727 243.564 197.28 242.222C198.911 241.897 200.569 241.828 202.122 241.944C203.683 242.037 205.179 242.253 206.584 242.539C209.398 243.106 211.852 243.934 213.864 244.725C215.878 245.517 217.456 246.273 218.534 246.817C219.075 247.086 219.486 247.311 219.764 247.466C220.041 247.622 220.183 247.711 220.175 247.727Z" fill="#263238"/>
<path d="M209.927 240.925C209.891 241.015 208.561 240.399 206.277 239.933C204.01 239.459 200.728 239.248 197.285 240.111C193.84 240.973 191.045 242.705 189.269 244.192C187.474 245.68 186.591 246.849 186.517 246.787C186.492 246.767 186.686 246.457 187.095 245.938C187.503 245.418 188.146 244.705 189.029 243.913C190.775 242.328 193.616 240.493 197.159 239.607C200.7 238.72 204.07 239 206.357 239.575C207.508 239.858 208.412 240.184 209.017 240.45C209.622 240.714 209.94 240.896 209.927 240.925Z" fill="#263238"/>
<path d="M126.549 167.097C126.541 167.107 126.403 167.021 126.145 166.844C125.856 166.643 125.482 166.383 125.014 166.058C124.012 165.39 122.524 164.446 120.554 163.401C118.589 162.346 116.137 161.216 113.358 159.869C110.584 158.523 107.491 156.881 104.491 154.572L104.838 154.507C102.236 158.88 99.3588 163.715 96.3228 168.817L96.0158 169.334L95.8498 168.754C95.6478 168.05 95.4308 167.294 95.2128 166.533C91.8098 154.775 87.6918 144.463 84.4108 137.149C82.7728 133.489 81.3618 130.565 80.3738 128.551C79.8948 127.576 79.5138 126.803 79.2338 126.232C79.1188 125.989 79.0248 125.789 78.9468 125.624C78.8848 125.485 78.8568 125.413 78.8648 125.408C78.8728 125.404 78.9158 125.468 78.9938 125.599C79.0838 125.758 79.1938 125.95 79.3268 126.184C79.6108 126.702 80.0368 127.463 80.5548 128.459C81.5988 130.447 83.0618 133.35 84.7458 136.996C88.1178 144.282 92.3008 154.6 95.7128 166.387C95.9308 167.15 96.1488 167.908 96.3508 168.613L95.8768 168.55C98.9278 163.456 101.819 158.63 104.434 154.265L104.571 154.036L104.781 154.2C107.728 156.494 110.778 158.146 113.532 159.518C116.289 160.89 118.735 162.057 120.689 163.153C122.649 164.238 124.122 165.226 125.1 165.935C125.588 166.292 125.946 166.589 126.192 166.783C126.435 166.98 126.557 167.087 126.549 167.097Z" fill="#263238"/>
<path d="M144.17 123.965C144.187 123.961 144.264 124.239 144.394 124.772C144.529 125.352 144.709 126.13 144.937 127.108C145.397 129.192 146.043 132.121 146.837 135.72C147.618 139.362 148.584 143.686 149.567 148.514C150.037 150.933 150.465 153.501 150.582 156.2C150.683 158.887 150.486 161.747 149.475 164.463C149.314 164.955 149.078 165.417 148.886 165.887L148.692 166.362L148.426 165.906C144.974 159.986 142.317 154.125 140.387 148.971L140.781 149.025C137.048 154.01 133.925 158.181 131.7 161.151C130.614 162.576 129.749 163.711 129.123 164.531C128.84 164.891 128.611 165.181 128.429 165.411C128.269 165.608 128.182 165.706 128.172 165.699C128.162 165.692 128.231 165.579 128.372 165.369C128.539 165.128 128.75 164.824 129.01 164.448C129.611 163.609 130.442 162.449 131.486 160.993C133.674 157.995 136.745 153.786 140.416 148.755L140.661 148.42L140.81 148.81C142.77 153.93 145.437 159.752 148.876 165.643L148.416 165.662C148.601 165.207 148.83 164.761 148.985 164.284C149.964 161.655 150.163 158.865 150.071 156.22C149.962 153.564 149.55 151.016 149.094 148.604C148.11 143.793 147.223 139.457 146.475 135.795C145.749 132.183 145.158 129.242 144.737 127.15C144.55 126.164 144.401 125.379 144.29 124.794C144.194 124.254 144.152 123.969 144.17 123.965Z" fill="#263238"/>
<path d="M214.173 185.823C214.173 185.823 213.998 185.836 213.658 185.836C213.297 185.832 212.795 185.827 212.148 185.821C210.798 185.796 208.847 185.759 206.344 185.712C201.304 185.609 194.012 185.474 185 185.372C166.976 185.135 142.075 185.051 114.571 184.99C87.0578 184.929 62.1507 184.787 44.1257 184.455C35.1127 184.306 27.8207 184.115 22.7827 183.95C20.2817 183.861 18.3308 183.791 16.9818 183.743C16.3358 183.714 15.8348 183.692 15.4738 183.676C15.1338 183.658 14.9608 183.635 14.9608 183.635C14.9608 183.635 15.1358 183.622 15.4758 183.622C15.8368 183.626 16.3387 183.631 16.9857 183.637C18.3347 183.662 20.2857 183.699 22.7887 183.746C27.8277 183.849 35.1197 183.984 44.1317 184.086C62.1557 184.323 87.0598 184.407 114.573 184.468C142.076 184.529 166.981 184.671 185.006 185.003C194.019 185.152 201.311 185.344 206.35 185.509C208.852 185.598 210.802 185.668 212.152 185.716C212.798 185.745 213.299 185.767 213.66 185.783C213.999 185.8 214.173 185.823 214.173 185.823Z" fill="white"/>
<path d="M44.0618 251.761C44.0788 251.793 43.6018 252.099 42.7268 252.625C42.2868 252.882 41.7518 253.204 41.1528 253.61C40.5508 254.012 39.8448 254.438 39.1158 254.985C37.6198 256.023 35.9178 257.369 34.1168 258.963C32.3388 260.582 30.4748 262.461 28.6848 264.583C26.9138 266.721 25.3948 268.89 24.1178 270.928C22.8698 272.984 21.8468 274.898 21.0908 276.554C20.6818 277.369 20.3878 278.139 20.0998 278.803C19.8058 279.465 19.5848 280.048 19.4098 280.527C19.0478 281.481 18.8318 282.004 18.7968 281.994C18.7628 281.983 18.9138 281.438 19.2178 280.46C19.3638 279.969 19.5578 279.373 19.8278 278.696C20.0918 278.018 20.3638 277.233 20.7538 276.403C21.4718 274.715 22.4688 272.766 23.7068 270.678C24.9728 268.608 26.4948 266.408 28.2838 264.249C30.0908 262.106 31.9838 260.217 33.7958 258.604C35.6308 257.015 37.3708 255.687 38.9048 254.681C39.6528 254.15 40.3768 253.742 40.9968 253.362C41.6148 252.976 42.1668 252.679 42.6238 252.448C43.5358 251.975 44.0448 251.73 44.0618 251.761Z" fill="white"/>
<path d="M187.348 292.545C187.346 292.689 156.81 292.459 119.152 292.032C81.4808 291.605 50.9538 291.142 50.9548 290.999C50.9568 290.855 81.4858 291.085 119.158 291.512C156.816 291.938 187.349 292.401 187.348 292.545Z" fill="white"/>
<path d="M227.094 275.736C227.045 275.739 226.987 274.918 226.778 273.456C226.574 271.993 226.131 269.889 225.241 267.406C224.359 264.923 222.944 262.085 220.861 259.292C218.788 256.5 215.995 253.796 212.586 251.674C209.15 249.594 205.473 248.327 202.045 247.743C198.611 247.151 195.44 247.174 192.826 247.512C190.209 247.843 188.133 248.4 186.736 248.881C185.337 249.356 184.579 249.677 184.56 249.631C184.553 249.615 184.735 249.521 185.091 249.357C185.451 249.205 185.964 248.931 186.669 248.69C188.055 248.148 190.136 247.529 192.779 247.147C195.418 246.759 198.634 246.695 202.126 247.27C205.612 247.837 209.359 249.111 212.859 251.231C216.332 253.392 219.164 256.156 221.247 259.007C223.341 261.86 224.74 264.756 225.589 267.284C226.444 269.813 226.836 271.949 226.979 273.43C227.083 274.167 227.071 274.749 227.099 275.139C227.113 275.53 227.112 275.736 227.094 275.736Z" fill="white"/>
<path d="M96.6898 137.123C96.8028 137.212 95.1978 139.439 93.1048 142.097C91.0118 144.756 89.2238 146.838 89.1108 146.749C88.9978 146.66 90.6028 144.433 92.6958 141.775C94.7888 139.117 96.5768 137.034 96.6898 137.123Z" fill="white"/>
<path d="M136.92 136.484C136.875 136.415 137.744 135.758 139.152 134.78L139.279 134.691L139.404 134.802C140.32 135.616 141.48 136.68 142.726 137.853C144.196 139.237 145.507 140.512 146.438 141.453C147.369 142.394 147.92 143.003 147.871 143.055C147.822 143.107 147.181 142.594 146.186 141.721C145.19 140.848 143.84 139.616 142.37 138.232C141.124 137.059 139.993 135.965 139.125 135.099L139.377 135.121C137.915 136.02 136.965 136.554 136.92 136.484Z" fill="white"/>
<path d="M40.3618 179.959C40.3798 179.957 40.4248 180.165 40.4948 180.564C40.5678 181.019 40.6618 181.598 40.7768 182.312C41.0098 183.9 41.3298 186.084 41.7208 188.754C42.4808 194.259 43.5148 201.752 44.6578 210.031C46.7738 226.007 48.2708 237.304 48.6338 240.043C48.6338 240.043 48.6438 240.057 48.6378 240.093C48.6418 240.122 48.6158 240.1 48.5948 240.071C48.5828 240.046 48.5798 240.029 48.5708 240.002C48.5378 239.901 48.5028 239.751 48.4598 239.552C48.3748 239.155 48.2668 238.568 48.1378 237.809C47.8798 236.293 47.5368 234.094 47.1328 231.375C46.3238 225.937 45.2668 218.415 44.1418 210.1C43.0178 201.788 42.0378 194.257 41.3558 188.802C41.0328 186.123 40.7678 183.931 40.5758 182.338C40.4998 181.618 40.4388 181.035 40.3908 180.577C40.3548 180.174 40.3438 179.961 40.3618 179.959Z" fill="#263238"/>
<path d="M140.551 329.369C140.542 329.369 140.526 329.229 140.502 328.954C140.48 328.655 140.449 328.25 140.411 327.733C140.341 326.632 140.24 325.054 140.111 323.036C139.854 318.93 139.484 313.034 139.028 305.761C138.087 291.176 136.65 271.036 134.715 248.822C132.772 226.6 130.698 206.514 129.098 191.987C128.287 184.745 127.629 178.875 127.171 174.786C126.948 172.776 126.774 171.205 126.653 170.109C126.601 169.593 126.561 169.19 126.531 168.891C126.506 168.616 126.498 168.475 126.507 168.474C126.516 168.473 126.542 168.612 126.584 168.885C126.626 169.182 126.684 169.584 126.757 170.097C126.901 171.191 127.108 172.758 127.372 174.763C127.9 178.816 128.618 184.687 129.463 191.947C131.157 206.466 133.29 226.551 135.233 248.778C137.169 270.998 138.548 291.147 139.395 305.74C139.82 313.037 140.13 318.943 140.312 323.027C140.399 325.048 140.467 326.627 140.514 327.73C140.531 328.248 140.544 328.654 140.554 328.954C140.561 329.227 140.56 329.368 140.551 329.369Z" fill="#263238"/>
<path d="M185.703 169.117C185.847 169.119 185.748 186.87 185.482 208.762C185.216 230.661 184.884 248.406 184.74 248.404C184.596 248.402 184.695 230.654 184.961 208.756C185.227 186.864 185.559 169.115 185.703 169.117Z" fill="#263238"/>
<path d="M134.489 113.981L134.489 113.981L134.068 114.086L134.113 114.518L135.651 129.192L137.47 146.528L127.084 164.609L103.732 145.851L85.3735 120.925L79.6358 56.0839L79.6339 56.0618L79.63 56.04C77.8561 46.1082 79.1262 36.5218 83.2985 29.0609C87.4616 21.6164 94.5281 16.2587 104.433 14.7666L106.295 14.5969C106.295 14.5969 106.295 14.5969 106.295 14.5969C124.933 12.9015 141.742 25.8028 144.931 44.2431C147.938 61.6351 151.03 80.8521 151.767 90.2301C152.516 99.7677 148.206 105.686 143.702 109.24C141.444 111.023 139.135 112.21 137.389 112.952C136.517 113.322 135.787 113.581 135.278 113.746C135.023 113.829 134.824 113.888 134.689 113.926C134.622 113.946 134.571 113.96 134.537 113.968L134.5 113.978L134.491 113.98L134.489 113.981Z" fill="white" stroke="#263238"/>
<path d="M134.634 114.451C134.634 114.451 122.428 116.57 108.613 109.55C108.613 109.55 115.883 123.007 135.138 119.488L134.634 114.451Z" fill="#EB996E"/>
<path d="M140.26 60.0709C140.446 61.5329 139.36 62.8959 137.836 63.1179C136.315 63.3389 134.93 62.3359 134.744 60.8729C134.559 59.4109 135.643 58.0459 137.165 57.8249C138.689 57.6039 140.075 58.6089 140.26 60.0709Z" fill="#263238"/>
<path d="M142.304 52.9999C141.993 53.3939 139.746 52.0269 136.757 52.3069C133.767 52.5439 131.713 54.2819 131.355 53.9449C131.181 53.7969 131.472 53.1109 132.364 52.3289C133.242 51.5509 134.785 50.7309 136.648 50.5699C138.511 50.4109 140.14 50.9539 141.105 51.5739C142.088 52.1959 142.46 52.8229 142.304 52.9999Z" fill="#263238"/>
<path d="M111.641 62.749C111.827 64.212 110.741 65.5739 109.217 65.7959C107.696 66.0169 106.31 65.014 106.125 63.551C105.94 62.089 107.025 60.7239 108.546 60.5029C110.07 60.2799 111.456 61.286 111.641 62.749Z" fill="#263238"/>
<path d="M112.434 54.87C112.166 55.295 109.782 54.181 106.843 54.783C103.897 55.342 102.042 57.2919 101.65 56.9959C101.461 56.8679 101.673 56.156 102.479 55.281C103.267 54.412 104.712 53.4299 106.546 53.0669C108.381 52.7069 110.059 53.0709 111.086 53.5819C112.129 54.0939 112.568 54.676 112.434 54.87Z" fill="#263238"/>
<path d="M125.637 78.4669C125.608 78.2979 127.437 77.8079 130.413 77.1489C131.17 77.0009 131.878 76.7829 131.96 76.2509C132.09 75.6829 131.695 74.8889 131.244 74.0339C130.358 72.2519 129.43 70.3839 128.457 68.4259C124.568 60.4339 121.679 53.8339 122.002 53.6799C122.326 53.5259 125.74 59.8789 129.628 67.8719C130.568 69.8439 131.467 71.7249 132.323 73.5229C132.69 74.3649 133.278 75.3039 132.992 76.4839C132.838 77.0729 132.316 77.5389 131.838 77.7149C131.362 77.9089 130.933 77.9559 130.558 78.0129C127.542 78.4509 125.663 78.6349 125.637 78.4669Z" fill="#263238"/>
<path d="M111.671 41.9329C111.45 42.7729 108.43 42.6589 104.961 43.4009C101.476 44.0729 98.7407 45.3579 98.2087 44.6709C97.9697 44.3409 98.3937 43.5309 99.4657 42.6399C100.528 41.7509 102.269 40.8399 104.353 40.4139C106.438 39.9919 108.397 40.1509 109.721 40.5549C111.057 40.9559 111.763 41.5349 111.671 41.9329Z" fill="#263238"/>
<path d="M141.117 47.1809C140.653 47.9079 138.529 47.3899 136.049 47.5829C133.563 47.6879 131.517 48.4549 130.969 47.7889C130.726 47.4639 130.994 46.7529 131.852 46.0269C132.697 45.3039 134.16 44.6429 135.866 44.5399C137.573 44.4389 139.104 44.921 140.029 45.538C140.968 46.155 141.319 46.8289 141.117 47.1809Z" fill="#263238"/>
<path d="M70.441 80.8538C70.042 77.6169 70.5672 75.4201 71.5177 73.9278C72.4676 72.4365 73.884 71.5831 75.3968 71.114C76.9146 70.6433 78.5061 70.5679 79.7513 70.6212C80.3715 70.6478 80.8996 70.706 81.2811 70.7607C81.4015 70.7779 81.5043 70.7944 81.5889 70.8089L81.6484 71.2575L81.9289 73.3747C82.1611 75.1285 82.4709 77.4709 82.7815 79.8252C83.0922 82.1796 83.4035 84.5457 83.6387 86.3471C83.7563 87.2479 83.8548 88.0071 83.9246 88.5529C83.9566 88.8033 83.9826 89.0083 84.0016 89.1613C83.9474 89.184 83.8834 89.2093 83.8093 89.2364C83.4793 89.3575 82.9917 89.5018 82.3931 89.626C81.1939 89.8749 79.5844 90.0358 77.9355 89.7891C76.2905 89.5429 74.624 88.8945 73.2713 87.5395C71.9202 86.186 70.8393 84.0847 70.441 80.8538Z" fill="white" stroke="#263238"/>
<mask id="path-29-inside-1_1_970" fill="white">
<path d="M79.8638 84.8919C79.8008 84.8569 79.6528 85.0819 79.2838 85.3089C78.9248 85.5299 78.2848 85.7309 77.5618 85.5569C76.0968 85.2149 74.6428 83.1359 74.2838 80.7539C74.1008 79.5509 74.2128 78.3709 74.5228 77.3659C74.8078 76.3449 75.3518 75.5909 76.0418 75.3779C76.7238 75.1289 77.2747 75.4899 77.4827 75.8429C77.7067 76.1919 77.6548 76.4669 77.7278 76.4809C77.7688 76.5099 77.9848 76.2229 77.8108 75.6889C77.7238 75.4319 77.5298 75.1389 77.1868 74.9219C76.8368 74.7019 76.3518 74.6279 75.8678 74.7419C74.8538 74.9389 74.0488 75.9929 73.7078 77.0959C73.3108 78.2099 73.1568 79.5409 73.3628 80.8909C73.7768 83.5529 75.4538 85.8859 77.4388 86.2029C78.4018 86.3319 79.1457 85.9539 79.5087 85.5919C79.8797 85.2149 79.9128 84.9109 79.8638 84.8919Z"/>
</mask>
<path d="M79.8638 84.8919C79.8008 84.8569 79.6528 85.0819 79.2838 85.3089C78.9248 85.5299 78.2848 85.7309 77.5618 85.5569C76.0968 85.2149 74.6428 83.1359 74.2838 80.7539C74.1008 79.5509 74.2128 78.3709 74.5228 77.3659C74.8078 76.3449 75.3518 75.5909 76.0418 75.3779C76.7238 75.1289 77.2747 75.4899 77.4827 75.8429C77.7067 76.1919 77.6548 76.4669 77.7278 76.4809C77.7688 76.5099 77.9848 76.2229 77.8108 75.6889C77.7238 75.4319 77.5298 75.1389 77.1868 74.9219C76.8368 74.7019 76.3518 74.6279 75.8678 74.7419C74.8538 74.9389 74.0488 75.9929 73.7078 77.0959C73.3108 78.2099 73.1568 79.5409 73.3628 80.8909C73.7768 83.5529 75.4538 85.8859 77.4388 86.2029C78.4018 86.3319 79.1457 85.9539 79.5087 85.5919C79.8797 85.2149 79.9128 84.9109 79.8638 84.8919Z" fill="#263238"/>
<path d="M79.8638 84.8919L79.3781 85.7661L79.4382 85.7995L79.5022 85.8243L79.8638 84.8919ZM79.2838 85.3089L78.7598 84.4572L78.7595 84.4574L79.2838 85.3089ZM77.5618 85.5569L77.7957 84.5847L77.7891 84.5831L77.5618 85.5569ZM74.2838 80.7539L75.2726 80.6049L75.2724 80.6035L74.2838 80.7539ZM74.5228 77.3659L75.4783 77.6607L75.4823 77.6478L75.4859 77.6348L74.5228 77.3659ZM76.0418 75.3779L76.3367 76.3335L76.3609 76.326L76.3847 76.3173L76.0418 75.3779ZM77.4827 75.8429L76.6212 76.3506L76.6309 76.367L76.6412 76.3831L77.4827 75.8429ZM77.7278 76.4809L78.3052 75.6645L78.1286 75.5396L77.9161 75.4988L77.7278 76.4809ZM77.8108 75.6889L78.7616 75.3791L78.7579 75.3683L77.8108 75.6889ZM77.1868 74.9219L77.7214 74.0769L77.7189 74.0753L77.1868 74.9219ZM75.8678 74.7419L76.0585 75.7236L76.0778 75.7198L76.097 75.7153L75.8678 74.7419ZM73.7078 77.0959L74.6497 77.4316L74.6569 77.4116L74.6631 77.3913L73.7078 77.0959ZM73.3628 80.8909L72.3742 81.0418L72.3746 81.0446L73.3628 80.8909ZM77.4388 86.2029L77.2811 87.1904L77.2935 87.1924L77.306 87.1941L77.4388 86.2029ZM79.5087 85.5919L80.2149 86.3001L80.2215 86.2934L79.5087 85.5919ZM80.3494 84.0178C80.0348 83.843 79.7279 83.8787 79.5479 83.9328C79.3885 83.9808 79.2748 84.0567 79.2295 84.0881C79.14 84.15 79.0492 84.2326 79.0271 84.2522C78.9448 84.3247 78.8681 84.3906 78.7598 84.4572L79.8077 86.1607C80.0684 86.0003 80.2502 85.8401 80.3499 85.7522C80.3761 85.7291 80.3876 85.7189 80.3967 85.7113C80.4071 85.7025 80.3938 85.7145 80.3674 85.7328C80.3506 85.7444 80.2617 85.8067 80.1238 85.8481C80.048 85.871 79.9377 85.8936 79.8037 85.8872C79.6634 85.8806 79.5163 85.8429 79.3781 85.7661L80.3494 84.0178ZM78.7595 84.4574C78.5889 84.5624 78.2194 84.6867 77.7957 84.5847L77.3278 86.5292C78.3501 86.7752 79.2606 86.4975 79.808 86.1605L78.7595 84.4574ZM77.7891 84.5831C77.3981 84.4918 76.8529 84.1114 76.332 83.3539C75.8284 82.6214 75.43 81.6495 75.2726 80.6049L73.2949 80.903C73.4965 82.2403 74.0046 83.499 74.684 84.487C75.3461 85.45 76.2604 86.28 77.3344 86.5308L77.7891 84.5831ZM75.2724 80.6035C75.1126 79.553 75.2117 78.5251 75.4783 77.6607L73.5672 77.0712C73.2138 78.2168 73.0889 79.5489 73.2951 80.9043L75.2724 80.6035ZM75.4859 77.6348C75.7371 76.7349 76.1339 76.3961 76.3367 76.3335L75.7468 74.4224C74.5696 74.7858 73.8784 75.9549 73.5596 77.0971L75.4859 77.6348ZM76.3847 76.3173C76.4391 76.2974 76.4754 76.2949 76.4966 76.2955C76.5188 76.2961 76.5384 76.3007 76.557 76.3084C76.5768 76.3166 76.5951 76.3284 76.6097 76.3411C76.6255 76.3548 76.6276 76.3614 76.6212 76.3506L78.3443 75.3353C77.9358 74.642 76.9113 73.9959 75.6988 74.4386L76.3847 76.3173ZM76.6412 76.3831C76.6645 76.4194 76.6736 76.4475 76.6835 76.4944C76.6873 76.5123 76.6896 76.5249 76.6956 76.5557C76.6996 76.5762 76.7096 76.6284 76.7242 76.6831C76.7358 76.7262 76.7714 76.857 76.859 76.9963C76.961 77.1585 77.1757 77.3933 77.5394 77.463L77.9161 75.4988C78.0737 75.5291 78.2144 75.5964 78.3298 75.6863C78.4394 75.7716 78.5096 75.864 78.5519 75.9313C78.5939 75.998 78.6183 76.0558 78.6314 76.0899C78.6449 76.1253 78.6527 76.1527 78.6561 76.1657C78.6619 76.1873 78.6638 76.1995 78.6589 76.1742C78.6559 76.1591 78.6485 76.1199 78.6403 76.0807C78.6019 75.8994 78.525 75.6155 78.3243 75.3028L76.6412 76.3831ZM77.1503 77.2974C77.7004 77.6865 78.2285 77.3586 78.2919 77.3177C78.4389 77.223 78.5331 77.1106 78.5835 77.0432C78.6953 76.8935 78.7687 76.725 78.8136 76.5631C78.9081 76.2219 78.9037 75.8155 78.7615 75.3791L76.86 75.9988C76.8918 76.0963 76.8664 76.1005 76.8862 76.029C76.8937 76.002 76.9162 75.9332 76.9815 75.8459C77.0086 75.8096 77.0805 75.719 77.2086 75.6365C77.2719 75.5957 77.3962 75.5261 77.5711 75.4966C77.7606 75.4647 78.042 75.4784 78.3052 75.6645L77.1503 77.2974ZM78.7579 75.3683C78.6018 74.9071 78.2689 74.4232 77.7214 74.0769L76.6521 75.767C76.7906 75.8546 76.8457 75.9568 76.8636 76.0096L78.7579 75.3683ZM77.7189 74.0753C77.1126 73.6942 76.3467 73.6018 75.6385 73.7686L76.097 75.7153C76.3568 75.6541 76.5609 75.7097 76.6546 75.7686L77.7189 74.0753ZM75.677 73.7603C74.8888 73.9134 74.25 74.3837 73.7809 74.9228C73.3091 75.4652 72.9593 76.1312 72.7524 76.8006L74.6631 77.3913C74.7972 76.9577 75.0204 76.5452 75.2898 76.2356C75.562 75.9227 75.8327 75.7674 76.0585 75.7236L75.677 73.7603ZM72.7658 76.7603C72.314 78.028 72.1429 79.5261 72.3742 81.0418L74.3513 80.7401C74.1706 79.5558 74.3075 78.3919 74.6497 77.4316L72.7658 76.7603ZM72.3746 81.0446C72.605 82.526 73.1875 83.9311 74.0126 85.0276C74.8308 86.1149 75.9529 86.9783 77.2811 87.1904L77.5965 85.2155C76.9396 85.1106 76.2307 84.649 75.6107 83.825C74.9975 83.0103 74.5345 81.9179 74.3509 80.7373L72.3746 81.0446ZM77.306 87.1941C78.5957 87.3668 79.6449 86.8684 80.2149 86.3L78.8026 84.8839C78.6466 85.0395 78.2078 85.297 77.5715 85.2118L77.306 87.1941ZM80.2215 86.2934C80.4885 86.0221 80.6718 85.739 80.7765 85.4682C80.8265 85.3387 80.8704 85.1813 80.8797 85.0102C80.884 84.9301 80.8839 84.7954 80.8403 84.6408C80.8092 84.5302 80.677 84.1347 80.2253 83.9596L79.5022 85.8243C79.0628 85.6539 78.9403 85.272 78.9153 85.1832C78.8778 85.0504 78.8803 84.9454 78.8826 84.9024C78.8878 84.8054 78.9095 84.7511 78.911 84.7472C78.9187 84.7274 78.9 84.7848 78.796 84.8905L80.2215 86.2934Z" fill="#263238" mask="url(#path-29-inside-1_1_970)"/>
<path d="M145.518 21.2569C144.7 18.7339 142.567 16.4429 139.919 16.2909C140.79 13.7059 139.659 10.5909 137.332 9.16594C135.005 7.74194 131.716 8.15194 129.811 10.1039C129.606 6.03294 124.326 3.21695 120.831 5.31595C120.761 2.95095 118.9 0.757944 116.578 0.304944C114.256 -0.149056 111.707 1.18194 110.751 3.34594C107.536 -1.17406 99.6897 -1.10005 96.5607 3.47995C91.0807 2.06495 84.7977 5.55094 83.0997 10.9509C78.7757 11.5759 75.0217 15.0959 74.1207 19.3699C71.3527 19.8539 68.9107 21.8959 67.9427 24.5349C66.9757 27.1739 67.5207 30.3099 69.3207 32.4679C66.1007 34.3959 65.8887 39.7859 68.9457 41.9609C67.0617 43.1089 65.9337 45.3899 66.1657 47.5839C66.3977 49.7779 67.9777 51.7729 70.0597 52.5009C68.1237 52.9209 67.5747 55.5799 68.3297 57.4119C69.0837 59.2439 70.6367 60.6299 71.5767 62.3739C72.3507 63.8109 72.6837 65.4449 73.3687 66.9269C74.6567 69.7119 77.2427 71.8499 80.2097 72.6259C80.1067 72.7699 80.0027 72.9139 79.8987 73.0569C79.7057 74.7929 82.1887 75.7499 83.7297 74.9289C85.2707 74.1069 86.0337 72.369 86.8257 70.812C87.7317 69.028 88.8307 67.2799 89.1377 65.3029C89.4447 63.3249 88.6877 60.9959 86.8357 60.2389C89.0647 59.2709 90.3347 56.7939 90.5527 54.3739C90.7717 51.9539 90.1247 49.5479 89.4827 47.2039C88.5367 43.7449 87.5907 40.2859 86.6447 36.8269C91.4557 36.2709 95.8137 32.8069 97.4407 28.2459C101.127 30.5929 106.773 28.6539 108.24 24.5379C110.214 29.1649 116.234 31.5679 120.852 29.5719C120.575 32.3729 125.748 34.4829 128.522 34.9629C131.296 35.4429 134.517 33.2239 134.517 33.2239C134.517 33.2239 139.423 35.5569 141.882 34.3079C144.294 33.0819 147.375 29.5689 145.492 27.0859C145.491 27.0839 146.336 23.7789 145.518 21.2569Z" fill="#263238"/>
<path d="M68.2658 41.9839C68.3908 41.9259 68.5568 42.8829 69.7398 43.5839C70.3148 43.9109 71.1427 44.1049 71.9527 43.7779C72.7537 43.4729 73.5238 42.6449 73.6298 41.6439L73.7168 40.8319L74.3817 41.3219C75.3377 42.0269 76.8738 42.2179 78.0868 41.5669C79.4538 40.8349 80.1098 39.1499 79.8358 37.8479L79.6728 37.0729L80.4208 37.3089C81.3688 37.6079 82.3758 37.4429 83.1118 37.0469C83.8588 36.6519 84.3388 36.0289 84.6158 35.4609C85.1618 34.2939 84.9858 33.4589 85.1168 33.4519C85.1798 33.4129 85.5947 34.2579 85.1337 35.6749C84.8977 36.3569 84.3898 37.1669 83.4998 37.7169C82.6278 38.2609 81.4038 38.5389 80.1558 38.1959L80.7408 37.6569C81.1388 39.3409 80.3798 41.4599 78.5608 42.4559C76.9568 43.3019 75.0457 43.0289 73.8147 42.0749L74.5658 41.7539C74.3538 43.1919 73.2908 44.1819 72.2188 44.5269C71.1058 44.8949 70.0497 44.5329 69.4247 44.0689C68.1157 43.0609 68.1888 41.9439 68.2658 41.9839Z" fill="#455A64"/>
<path d="M67.4128 54.9099C67.4728 54.8249 67.9218 55.2399 68.8868 55.3409C69.7788 55.4499 71.4348 55.093 72.1018 53.618L72.3218 53.1319L72.7258 53.4899C73.5398 54.2129 74.9338 54.592 76.2028 54.133C77.4508 53.71 78.4798 52.294 78.4108 50.801L78.3698 49.9229L79.1538 50.3369C79.3408 50.4359 79.5578 50.5159 79.7878 50.5609C80.8238 50.7729 81.9548 50.2719 82.3938 49.4199C82.8728 48.5649 82.7688 47.453 82.2638 46.762L81.6948 45.982L82.6478 46.0419C83.8198 46.1149 84.9138 45.6579 85.6478 45.0169C86.3928 44.3739 86.7848 43.5529 86.9628 42.8499C87.3048 41.4109 86.9298 40.5279 87.0578 40.5009C87.1038 40.4539 87.7018 41.3039 87.4888 42.9549C87.3718 43.7549 86.9948 44.75 86.1528 45.566C85.3278 46.371 84.0598 46.9839 82.6018 46.9419L82.9848 46.2219C83.7308 47.1979 83.9028 48.659 83.2548 49.887C82.6028 51.152 81.0448 51.842 79.5928 51.549C79.2658 51.485 78.9478 51.368 78.6718 51.219L79.4148 50.7549C79.4848 52.7419 78.1648 54.4819 76.5098 55.0199C74.8518 55.5619 73.1748 55.0199 72.1948 54.0649L72.8178 53.937C72.3558 54.882 71.5308 55.426 70.7928 55.665C70.0458 55.921 69.3478 55.8929 68.8168 55.7769C67.7288 55.5099 67.3668 54.9329 67.4128 54.9099Z" fill="#455A64"/>
<path d="M119.053 5.09195C119.001 5.16395 118.578 4.60094 117.475 4.36394C116.936 4.25794 116.22 4.26895 115.543 4.64995C114.874 5.01695 114.237 5.76494 114.101 6.71994L113.99 7.49495L113.529 6.84994C112.705 5.69694 111.059 4.75595 109.223 4.91895C107.427 5.04995 105.539 6.56694 105.133 8.65794L104.959 9.55594L104.337 8.88094C103.199 7.64694 101.368 6.92394 99.5377 7.08694C97.7097 7.21494 95.9627 8.42494 95.0597 10.1569C94.6857 10.8549 94.4727 11.6209 94.4137 12.3829L94.3717 12.9299L93.8347 12.8459C91.2077 12.4379 88.5307 14.1399 87.7587 16.3869C86.9367 18.6599 87.7647 21.1849 89.2607 22.5189L89.8217 23.0189L89.1017 23.2139C87.3737 23.6819 86.0587 24.8709 85.3417 26.1219C84.6047 27.3819 84.4627 28.7089 84.5497 29.7479C84.7557 31.8709 85.6617 32.853 85.5387 32.909C85.5117 32.93 85.2787 32.7179 84.9597 32.2189C84.6487 31.7219 84.2537 30.9189 84.0907 29.7999C83.9277 28.6979 84.0057 27.2369 84.7697 25.8049C85.5127 24.3899 86.9217 23.0169 88.8837 22.4319L88.7247 23.1269C86.9517 21.6069 85.9477 18.7719 86.8717 16.0699C87.7877 13.3769 90.8297 11.3919 93.9917 11.8549L93.4127 12.3169C93.4787 11.4059 93.7337 10.5019 94.1697 9.68594C95.2137 7.67094 97.2827 6.24394 99.4537 6.10294C101.6 5.93194 103.694 6.78194 105.022 8.25394L104.226 8.47694C104.77 5.93794 107.008 4.23694 109.162 4.11694C111.331 3.98594 113.155 5.12695 114.052 6.48795L113.48 6.61795C113.705 5.42995 114.507 4.59895 115.32 4.20795C116.152 3.80295 116.978 3.85795 117.56 4.02895C118.155 4.20295 118.544 4.49094 118.772 4.70494C118.995 4.92894 119.072 5.07595 119.053 5.09195Z" fill="#455A64"/>
<path d="M151.062 79.5779C148.932 78.2139 145.631 79.5359 145.031 81.9939C143.804 80.4879 141.687 79.7699 139.797 80.2179C137.907 80.6659 136.338 82.259 135.919 84.156C134.866 81.378 130.36 80.899 128.746 83.393C127.947 82.249 126.363 81.724 125.039 82.165C125.116 80.856 124.329 79.538 123.141 78.984C121.953 78.43 120.438 78.676 119.485 79.576C117.831 76.972 113.629 76.5389 111.478 78.7499C111.019 77.5349 109.691 76.7099 108.398 76.8379C107.105 76.9659 105.964 78.0329 105.751 79.3149C104.391 77.7579 101.941 77.28 100.095 78.212C99.9948 76.277 97.7148 74.8029 95.9088 75.5059C96.2688 73.8319 93.8077 73.24 92.4987 72.137C91.9127 71.643 91.5147 70.9439 90.8887 70.5019C90.2627 70.0599 89.2227 70.019 88.8737 70.702C89.1087 69.368 88.2028 67.93 86.8978 67.566C85.5928 67.202 84.0737 67.964 83.5847 69.227C83.2947 69.974 83.3437 70.803 83.2787 71.602C83.0677 74.18 81.8227 77.3039 83.7867 78.9869C84.1327 79.2839 84.5737 79.5189 84.7397 79.9439C85.0227 80.6689 84.3408 81.421 84.3358 82.199C84.3298 83.106 85.2007 83.7409 85.6207 84.5449C86.2437 85.7349 85.8297 87.171 85.8167 88.514C85.8037 89.857 86.6687 91.505 87.9937 91.288C87.1167 93.292 87.9478 95.886 89.8248 97.008C88.9298 99.328 90.4617 102.263 92.8777 102.855C92.0347 103.621 92.1887 105.065 92.8967 105.956C93.6057 106.847 94.7007 107.322 95.7507 107.763C94.8547 108.301 94.8228 109.693 95.4518 110.528C96.0818 111.363 97.1417 111.745 98.1637 111.964C98.6027 112.058 99.0867 112.154 99.3647 112.507C99.8847 113.17 99.3037 114.15 99.4857 114.973C99.7647 116.232 101.578 116.486 102.187 117.623C102.729 118.635 102.197 120.134 103.08 120.868C103.653 121.344 104.504 121.196 105.22 121.399C106.496 121.761 107.139 123.133 107.999 124.142C109.622 126.046 112.219 126.761 114.677 127.223C115.929 127.458 117.189 127.653 118.453 127.808C120.974 128.117 123.513 128.264 126.049 128.412C127.307 128.485 128.847 128.41 129.437 127.296C131.317 129.328 135.258 128.614 136.305 126.051C138.592 126.514 140.877 125.42 142.954 124.357C143.672 123.99 144.39 123.623 145.108 123.256C147.249 122.161 149.622 120.778 150.127 118.427C152.983 117.839 154.656 114.106 153.194 111.583C154.215 111.807 155.124 110.734 155.22 109.693C155.316 108.652 154.886 107.646 154.635 106.631C153.615 102.502 155.567 98.1099 154.731 93.9399C154.145 91.0209 152.211 88.218 152.877 85.316C153.014 84.719 153.262 84.124 153.182 83.516C153.102 82.909 152.501 82.312 151.927 82.527C152.576 80.798 150.763 78.7 148.958 79.092" fill="#263238"/>
<path d="M117.025 81.335C117.508 81.262 117.81 84.5069 120.797 86.5579C123.78 88.6169 127.206 87.938 127.274 88.389C127.337 88.588 126.56 89.09 125.104 89.262C123.676 89.442 121.543 89.171 119.714 87.917C117.891 86.658 116.99 84.8399 116.759 83.5189C116.513 82.1739 116.801 81.337 117.025 81.335Z" fill="white"/>
<path d="M99.4267 105.415C99.5877 105.351 98.0458 102.494 97.7478 98.6029C97.3998 94.7149 98.4498 91.6429 98.2798 91.6059C98.2228 91.5859 97.8828 92.3189 97.5808 93.5849C97.2768 94.8479 97.0608 96.657 97.2228 98.646C97.3908 100.634 97.9018 102.382 98.4108 103.577C98.9178 104.778 99.3737 105.445 99.4267 105.415Z" fill="#455A64"/>
<path d="M96.0717 100.904C96.1367 100.837 95.6318 100.407 95.2388 99.471C94.8328 98.543 94.6248 97.1329 94.6718 95.5579C94.7168 92.3939 95.4358 89.8949 95.2818 89.8539C95.1608 89.7999 94.1937 92.292 94.1447 95.549C94.0957 97.164 94.3738 98.6739 94.9028 99.6319C95.4228 100.603 96.0487 100.95 96.0717 100.904Z" fill="#455A64"/>
<path d="M92.6317 98.4059C92.7847 98.3299 91.1868 96.0159 90.8678 92.6879C90.4938 89.3639 91.5798 86.7709 91.4148 86.7279C91.3598 86.7039 91.0108 87.3079 90.6998 88.3879C90.3868 89.4629 90.1678 91.028 90.3438 92.743C90.5258 94.456 91.0618 95.9429 91.5898 96.9299C92.1158 97.9219 92.5827 98.4409 92.6317 98.4059Z" fill="#455A64"/>
<path d="M148.103 114.974C148.113 115.026 148.978 114.746 149.886 113.675C150.798 112.62 151.556 110.812 151.919 108.768C152.303 106.715 152.237 104.806 152.034 103.464C151.831 102.117 151.538 101.324 151.476 101.341C151.31 101.358 152.167 104.66 151.401 108.672C151.046 110.667 150.379 112.395 149.593 113.446C148.817 114.508 148.053 114.895 148.103 114.974Z" fill="#455A64"/>
<path d="M145.219 114.44C145.253 114.486 145.867 114.125 146.654 113.294C147.44 112.47 148.344 111.127 148.887 109.457C149.424 107.785 149.478 106.167 149.323 105.039C149.172 103.904 148.885 103.252 148.831 103.27C148.746 103.292 148.901 103.971 148.952 105.071C149.007 106.169 148.897 107.7 148.386 109.295C147.867 110.888 147.06 112.193 146.372 113.051C145.686 113.913 145.164 114.373 145.219 114.44Z" fill="#455A64"/>
<path d="M131.545 88.865C131.676 88.906 132.032 87.735 131.649 86.327C131.278 84.915 130.385 84.078 130.292 84.18C130.171 84.277 130.808 85.182 131.14 86.464C131.492 87.739 131.393 88.841 131.545 88.865Z" fill="#455A64"/>
<path d="M128.124 88.2669C128.218 88.3709 129.009 87.5699 129.13 86.2579C129.263 84.9469 128.64 84.0099 128.528 84.0929C128.388 84.1569 128.728 85.0659 128.606 86.2069C128.507 87.3499 127.999 88.1779 128.124 88.2669Z" fill="#455A64"/>
<path d="M124.675 87.437C124.777 87.53 125.494 86.788 125.744 85.583C126.003 84.38 125.649 83.4119 125.518 83.4549C125.368 83.4859 125.465 84.3999 125.229 85.4739C125.009 86.5519 124.551 87.349 124.675 87.437Z" fill="#455A64"/>
<path d="M122.08 84.8259C122.207 84.8909 122.584 84.3969 122.783 83.6749C122.985 82.9539 122.917 82.3359 122.775 82.3259C122.628 82.3139 122.464 82.8659 122.276 83.5339C122.093 84.2019 121.947 84.7609 122.08 84.8259Z" fill="#455A64"/>
<path d="M119.903 83.8559C120.042 83.9179 120.454 83.2369 121.166 82.6089C121.867 81.9689 122.589 81.6329 122.542 81.4879C122.513 81.3519 121.616 81.4919 120.814 82.2169C120.007 82.9349 119.771 83.8129 119.903 83.8559Z" fill="#455A64"/>
<path d="M116.628 81.6439C116.738 81.7529 117.584 80.9719 118.888 80.5539C120.184 80.1119 121.329 80.2339 121.352 80.0799C121.401 79.9509 120.169 79.5669 118.723 80.0539C117.272 80.5259 116.512 81.5689 116.628 81.6439Z" fill="#455A64"/>
<path d="M131.276 118.836C131.32 118.87 131.91 118.216 132.576 116.967C133.243 115.724 133.917 113.849 134.125 111.688C134.326 109.526 134.015 107.558 133.593 106.212C133.174 104.86 132.717 104.107 132.667 104.132C132.585 104.168 132.916 104.967 133.233 106.308C133.553 107.646 133.793 109.549 133.6 111.638C133.398 113.726 132.806 115.55 132.24 116.804C131.677 118.063 131.202 118.786 131.276 118.836Z" fill="#455A64"/>
<path d="M127.835 118.838C127.912 118.941 129.71 116.943 130.385 113.799C131.094 110.661 130.302 108.094 130.189 108.155C130.023 108.176 130.553 110.685 129.871 113.686C129.23 116.695 127.693 118.75 127.835 118.838Z" fill="#455A64"/>
<path d="M121.744 118.032C121.774 118.085 122.325 117.862 123.082 117.278C123.837 116.7 124.764 115.72 125.461 114.43C126.154 113.137 126.461 111.824 126.527 110.875C126.597 109.922 126.48 109.339 126.419 109.344C126.254 109.33 126.355 111.71 124.997 114.181C123.684 116.675 121.642 117.902 121.744 118.032Z" fill="#455A64"/>
<path d="M86.4148 281.738L86.4148 281.738C86.3674 282.505 86.2887 283.536 85.6334 284.277L85.6333 284.277C84.8782 285.131 83.634 285.274 82.6605 284.992L82.6602 284.992C81.6866 284.709 80.8979 284.061 80.2418 283.443L80.2417 283.443C76.2858 279.712 74.0836 274.204 74.3775 268.775L86.4148 281.738ZM86.4148 281.738C86.7335 276.554 86.638 271.344 86.1304 266.176L86.1305 266.176L86.129 266.164L86.004 265.146C85.9642 263.614 85.4156 262.564 84.5721 261.857C83.7485 261.167 82.6925 260.846 81.7202 260.651L81.72 260.651M86.4148 281.738L81.72 260.651M81.72 260.651C79.5859 260.223 77.4213 261.382 76.1802 263.043C74.9384 264.705 74.484 266.796 74.3775 268.775L81.72 260.651ZM125.883 250.699L127.231 295.683C127.01 295.738 126.693 295.814 126.281 295.906C125.389 296.105 124.052 296.38 122.276 296.681C118.725 297.283 113.421 297.99 106.425 298.407C99.4663 298.821 94.3634 297.968 91.0116 297.02C89.3352 296.546 88.0956 296.048 87.2798 295.671C86.8719 295.483 86.5699 295.325 86.3721 295.215C86.3534 295.205 86.3356 295.195 86.3188 295.186V289.279V288.865L85.912 288.788C82.6864 288.175 80.2866 286.998 78.4945 285.443C76.7018 283.889 75.4917 281.935 74.6797 279.732C73.0469 275.303 73.04 269.927 73.1237 264.901C73.1638 262.496 73.871 260.903 74.86 259.841C75.856 258.77 77.1845 258.187 78.55 257.895C79.9158 257.603 81.2877 257.608 82.3265 257.69C82.8439 257.73 83.2741 257.789 83.5735 257.838C83.7231 257.862 83.8397 257.884 83.918 257.899C83.9571 257.907 83.9866 257.913 84.0057 257.917L84.0267 257.922L84.0312 257.923L84.0316 257.923L84.0319 257.923L84.0319 257.923L84.5716 258.045L84.6381 257.495L85.2716 252.268C92.5339 250.517 102.683 250.12 111.102 250.171C115.368 250.196 119.177 250.336 121.919 250.47C123.29 250.537 124.394 250.602 125.154 250.65C125.451 250.669 125.695 250.686 125.883 250.699Z" fill="white" stroke="#263238"/>
<path d="M85.6012 278.025C85.2701 277.997 84.8043 277.96 84.2502 277.921C83.1208 277.842 81.6203 277.754 80.1436 277.725C78.6744 277.696 77.2002 277.723 76.1358 277.88C75.6156 277.957 75.1305 278.072 74.7923 278.266C74.6208 278.364 74.4349 278.512 74.3308 278.736C74.2161 278.982 74.2377 279.24 74.3396 279.464L74.3396 279.464C74.4917 279.798 74.8174 280.142 75.1932 280.472C75.5849 280.817 76.091 281.196 76.6733 281.596C77.8391 282.396 79.3464 283.302 80.9382 284.202C84.1236 286.004 87.6832 287.805 89.6119 288.728C90.4759 289.141 91.3128 289.912 92.0966 290.886C92.8764 291.854 93.5783 292.99 94.1817 294.094C94.7843 295.196 95.2824 296.254 95.6587 297.064C95.6907 297.133 95.722 297.2 95.7524 297.266C95.8993 297.582 96.0271 297.858 96.1312 298.07C96.1939 298.198 96.2525 298.312 96.305 298.403C96.3143 298.419 96.3239 298.435 96.3338 298.451C96.3065 298.495 96.2687 298.55 96.218 298.617C96.0115 298.89 95.673 299.249 95.2676 299.624C94.8652 299.997 94.4119 300.372 93.9849 300.68C93.5484 300.995 93.173 301.215 92.9202 301.305L92.6934 301.386L85.6012 278.025ZM85.6012 278.025C85.6144 274.367 85.5567 270.789 85.3358 268.486L85.6012 278.025ZM92.6157 301.614L92.6156 301.614L92.6156 301.614L92.6154 301.615L92.6139 301.619L92.607 301.639C92.6056 301.643 92.604 301.647 92.6022 301.652C92.596 301.669 92.5879 301.692 92.5777 301.719C92.5513 301.79 92.5115 301.893 92.4589 302.021C92.3535 302.276 92.1982 302.624 91.9988 302.995C91.5865 303.764 91.0368 304.534 90.4199 304.877C90.3074 304.939 90.0186 305.032 89.5195 305.135C89.0418 305.233 88.4263 305.33 87.707 305.423C86.2698 305.61 84.4437 305.776 82.5296 305.901C78.6873 306.151 74.5534 306.231 72.5163 305.987C72.0607 305.932 71.3405 305.717 70.3895 305.351C69.45 304.988 68.3216 304.492 67.0642 303.899C64.5502 302.712 61.5427 301.146 58.5403 299.509C52.5287 296.232 46.5782 292.694 44.6813 291.375C43.8791 290.816 43.3104 289.699 42.9691 288.125C42.6317 286.568 42.5373 284.662 42.5993 282.656C42.7232 278.647 43.4684 274.339 44.0477 271.856C44.6061 269.462 45.9475 267.532 47.1671 266.19C47.7751 265.521 48.3474 265.005 48.7664 264.657C48.9757 264.483 49.1463 264.351 49.2632 264.264C49.3217 264.22 49.3667 264.188 49.3964 264.167L49.4184 264.151L75.5847 250.147C76.886 249.45 78.4339 249.391 79.7866 249.986L79.7868 249.986C80.7376 250.403 81.8163 250.886 82.7172 251.313C83.168 251.527 83.5705 251.725 83.8888 251.892C84.0505 251.977 84.1818 252.05 84.2833 252.11L83.7063 256.871C83.6198 256.86 83.5239 256.849 83.4198 256.837C82.9363 256.781 82.2743 256.715 81.5629 256.676C80.8536 256.637 80.0843 256.623 79.3894 256.675C78.7134 256.725 78.0357 256.841 77.5589 257.106C77.3131 257.242 77.0486 257.464 76.7859 257.719C76.5174 257.98 76.2272 258.298 75.9297 258.65C75.3343 259.355 74.6927 260.215 74.1119 261.059C73.5315 261.904 73.0046 262.744 72.6414 263.411C72.461 263.742 72.3133 264.045 72.2208 264.29C72.1752 264.411 72.1355 264.538 72.1165 264.658C72.1028 264.744 72.0736 264.968 72.2075 265.169L92.6157 301.614Z" fill="white" stroke="#263238"/>
<path d="M95.4228 295.406C95.4188 295.442 94.9948 295.429 94.2308 295.375C93.3598 295.3 92.2818 295.207 91.0058 295.097C89.6078 294.957 87.9978 294.795 86.2308 294.618C85.3288 294.522 84.3878 294.422 83.4138 294.318C82.3978 294.236 81.3948 293.981 80.3848 293.684C79.8788 293.531 79.3908 293.376 78.8988 293.191C78.4288 292.998 77.9658 292.807 77.5108 292.62C76.6048 292.244 75.7288 291.881 74.8898 291.533C73.2518 290.842 71.7598 290.211 70.4628 289.664C69.2888 289.149 68.2968 288.714 67.4958 288.362C66.7998 288.044 66.4218 287.852 66.4348 287.819C66.4488 287.786 66.8528 287.914 67.5718 288.174C68.3888 288.484 69.4018 288.867 70.5998 289.322C71.9078 289.839 73.4128 290.434 75.0648 291.086C75.9068 291.425 76.7858 291.779 77.6958 292.144C78.1518 292.329 78.6158 292.517 79.0858 292.708C79.5448 292.88 80.0408 293.037 80.5328 293.185C81.5218 293.476 82.5048 293.727 83.4518 293.809C84.4268 293.924 85.3688 294.034 86.2708 294.14C88.0358 294.359 89.6438 294.558 91.0418 294.731C92.3128 294.906 93.3858 295.054 94.2528 295.174C95.0108 295.289 95.4268 295.37 95.4228 295.406Z" fill="#263238"/>
<path d="M93.0887 301.777C93.0927 301.813 92.6768 301.895 91.9188 302.014C91.1608 302.13 90.0618 302.278 88.6958 302.412C85.9768 302.682 82.1227 302.869 77.9807 302.025C73.8617 301.177 70.2658 299.758 67.9518 298.235C66.7868 297.495 65.9208 296.785 65.3498 296.271C64.7818 295.751 64.5027 295.429 64.5237 295.406C64.5847 295.334 65.8038 296.533 68.1438 297.921C70.4598 299.336 74.0178 300.677 78.0828 301.515C82.1528 302.344 85.9478 302.221 88.6658 302.046C89.9438 301.954 91.0237 301.876 91.8947 301.813C92.6597 301.756 93.0837 301.741 93.0887 301.777Z" fill="#263238"/>
<path d="M60.3688 288.045C60.3818 288.123 60.0808 288.21 59.6788 288.462C59.2798 288.707 58.7808 289.155 58.5088 289.797C58.2398 290.44 58.2678 291.11 58.3718 291.567C58.4718 292.03 58.6198 292.306 58.5558 292.352C58.5068 292.392 58.2348 292.18 58.0218 291.68C57.8088 291.193 57.6988 290.388 58.0298 289.596C58.3648 288.806 59.0168 288.322 59.5148 288.134C60.0208 287.936 60.3628 287.982 60.3688 288.045Z" fill="#263238"/>
<path d="M63.0768 279.238C63.1018 279.314 62.7458 279.466 62.2648 279.821C61.7848 280.169 61.1868 280.758 60.8138 281.568C60.4418 282.379 60.3848 283.216 60.4328 283.807C60.4768 284.403 60.5928 284.772 60.5198 284.802C60.4628 284.83 60.2168 284.5 60.0688 283.862C59.9188 283.234 59.9148 282.278 60.3398 281.35C60.7668 280.423 61.4948 279.803 62.0688 279.508C62.6508 279.205 63.0608 279.177 63.0768 279.238Z" fill="#263238"/>
<path d="M67.3398 266.416C67.3588 266.494 66.9428 266.628 66.3598 266.976C65.7788 267.318 65.0368 267.918 64.5138 268.792C63.9918 269.667 63.8158 270.605 63.7898 271.279C63.7588 271.957 63.8388 272.388 63.7608 272.407C63.7018 272.426 63.4878 272.018 63.4218 271.286C63.3518 270.565 63.4818 269.505 64.0668 268.525C64.6528 267.545 65.5238 266.929 66.1918 266.648C66.8678 266.36 67.3288 266.354 67.3398 266.416Z" fill="#263238"/>
<path d="M72.3418 267.301C72.1998 267.306 72.0608 265.48 70.9418 263.54C69.8598 261.601 68.7498 260.122 68.8898 260.022C68.9798 259.952 70.2718 261.278 71.3998 263.293C71.9508 264.305 72.2748 265.322 72.3728 266.076C72.4778 266.83 72.4048 267.3 72.3418 267.301Z" fill="#263238"/>
<path d="M126.416 268.783C126.389 268.796 126.314 268.585 126.059 268.267C125.798 267.963 125.314 267.559 124.561 267.381C123.827 267.206 122.811 267.205 121.871 267.754C120.917 268.289 120.091 269.281 119.445 270.512C118.779 271.736 118.312 273.221 117.496 274.706C117.084 275.442 116.572 276.183 115.866 276.78C115.173 277.383 114.323 277.842 113.396 278.114C111.558 278.675 109.304 278.422 107.614 277.107C105.941 275.838 104.795 273.673 104.945 271.417C104.988 270.31 105.196 269.259 105.269 268.232C105.354 267.213 105.275 266.189 104.768 265.388C104.286 264.571 103.413 264.087 102.513 263.846C101.6 263.604 100.663 263.573 99.7368 263.611C98.8108 263.642 97.8908 263.708 96.9848 263.645C96.0828 263.586 95.1878 263.368 94.4308 262.945C92.9038 262.106 91.9428 260.706 91.4428 259.363C90.9318 257.999 90.9028 256.652 91.0488 255.529C91.1958 254.397 91.5158 253.464 91.8238 252.731C92.1338 251.997 92.4418 251.46 92.6618 251.106C92.8828 250.751 93.0168 250.577 93.0298 250.585C93.0788 250.612 92.5778 251.342 92.0118 252.807C91.7368 253.539 91.4518 254.463 91.3378 255.563C91.2238 256.658 91.2798 257.945 91.7868 259.232C92.2828 260.503 93.2168 261.81 94.6348 262.565C96.0538 263.364 97.8598 263.231 99.7188 263.132C100.655 263.087 101.656 263.109 102.64 263.366C103.611 263.618 104.629 264.163 105.2 265.12C105.796 266.059 105.87 267.218 105.784 268.27C105.708 269.339 105.503 270.387 105.463 271.438C105.322 273.527 106.378 275.518 107.921 276.703C109.472 277.917 111.536 278.163 113.259 277.655C115.019 277.173 116.349 275.928 117.116 274.495C117.92 273.074 118.412 271.588 119.117 270.337C119.8 269.084 120.691 268.047 121.724 267.501C122.761 266.932 123.839 266.972 124.608 267.187C125.398 267.406 125.892 267.865 126.137 268.204C126.381 268.557 126.416 268.783 126.416 268.783Z" fill="white"/>
<path d="M114.834 298.033C114.787 298.014 115.05 297.506 115.206 296.518C115.346 295.55 115.351 294.015 114.476 292.467C113.641 290.945 111.762 289.514 109.434 289.422C108.276 289.378 107.061 289.702 105.741 289.859C104.443 290.004 102.879 289.927 101.73 288.881C101.17 288.357 100.878 287.633 100.736 286.953C100.594 286.266 100.55 285.598 100.46 284.966C100.33 283.695 99.7388 282.596 98.7068 282.066C97.7158 281.514 96.5648 281.395 95.5548 281.53C94.5398 281.67 93.6368 282.087 92.9028 282.57C91.4228 283.561 90.6218 284.837 90.2148 285.738C89.8068 286.653 89.7318 287.218 89.6808 287.207C89.6628 287.204 89.6738 287.064 89.7128 286.797C89.7568 286.531 89.8478 286.142 90.0288 285.661C90.3888 284.711 91.1678 283.35 92.6958 282.268C93.4568 281.74 94.3938 281.277 95.4938 281.105C96.5798 280.943 97.8188 281.043 98.9418 281.649C99.4988 281.949 100.011 282.401 100.354 282.985C100.712 283.565 100.865 284.239 100.965 284.894C101.157 286.18 101.141 287.619 102.088 288.506C103.028 289.377 104.452 289.494 105.684 289.355C106.95 289.215 108.2 288.888 109.452 288.946C111.978 289.077 113.947 290.647 114.798 292.292C115.684 293.964 115.61 295.568 115.405 296.557C115.298 297.062 115.149 297.434 115.041 297.681C114.923 297.92 114.849 298.041 114.834 298.033Z" fill="white"/>
<path d="M124.591 296.413C124.604 296.431 124.336 296.622 123.771 296.623C123.219 296.628 122.382 296.366 121.694 295.623C120.992 294.877 120.625 293.688 120.512 292.419C120.404 291.15 120.357 289.754 120.518 288.282C120.679 286.815 121.073 285.427 121.702 284.291C122.332 283.157 123.161 282.297 123.965 281.742C124.771 281.184 125.533 280.917 126.065 280.818C126.6 280.718 126.902 280.748 126.903 280.774C126.934 280.876 125.671 280.893 124.183 282.04C123.45 282.602 122.696 283.44 122.125 284.52C121.556 285.601 121.192 286.925 121.036 288.342C120.88 289.759 120.911 291.141 120.991 292.378C121.074 293.604 121.385 294.694 121.971 295.381C122.554 296.077 123.287 296.368 123.785 296.423C124.292 296.482 124.578 296.366 124.591 296.413Z" fill="white"/>
<path d="M125.336 250.865C125.363 250.866 125.4 251.176 125.327 251.733C125.255 252.288 125.05 253.09 124.568 253.983C124.081 254.864 123.298 255.836 122.15 256.56C121.011 257.293 119.503 257.69 117.947 257.586C116.39 257.474 114.951 256.873 113.924 255.99C112.887 255.115 112.246 254.044 111.885 253.104C111.531 252.153 111.439 251.331 111.444 250.771C111.449 250.209 111.528 249.907 111.555 249.91C111.663 249.901 111.465 251.175 112.226 252.965C112.612 253.841 113.249 254.826 114.23 255.62C115.198 256.42 116.534 256.961 117.983 257.067C119.433 257.162 120.83 256.81 121.899 256.152C122.98 255.501 123.747 254.614 124.25 253.799C125.251 252.13 125.23 250.84 125.336 250.865Z" fill="white"/>
<path d="M186.319 258.294L186.829 262.203L183.101 266.8L171.645 283.116L143.336 279.481L149.101 267.301L152.885 260.66C153.858 258.951 155.682 257.905 157.648 257.925" fill="#263238"/>
<path d="M179.05 258.151C179.05 258.151 186.149 251.837 190.908 253.366C195.666 254.896 209.262 253.366 208.922 259.144C208.582 264.922 206.373 267.98 202.124 267.301C197.875 266.622 195.972 265.432 195.972 265.432C195.972 265.432 197.467 265.772 195.972 270.87C194.476 275.968 189.038 285.561 186.999 287.818C184.96 290.074 184.11 290.321 183.09 290.198C182.07 290.074 177.992 293.983 176.462 294.153C174.932 294.323 175.612 294.153 175.612 294.153C175.612 294.153 170.684 299.038 164.056 295.406C157.428 291.774 151.65 290.244 151.14 289.394C150.63 288.544 143.153 281.317 141.793 279.238C140.433 277.158 136.695 268.15 136.865 267.301C137.035 266.452 140.944 263.321 144.003 266.416C144.003 266.416 145.702 264.921 149.101 267.301C152.5 269.681 162.527 272.844 162.527 272.844C162.527 272.844 160.997 271.012 161.167 269.412C161.337 267.812 162.697 265.093 165.246 265.433C167.795 265.773 183.43 267.302 183.43 267.302L186.829 262.204L186.319 258.295L179.05 258.151Z" fill="white"/>
<path d="M189.217 278.389C189.223 278.424 188.841 278.514 188.142 278.647C187.445 278.789 186.422 278.92 185.153 279.016C182.617 279.213 179.063 279.119 175.252 278.299C171.442 277.467 168.167 276.081 165.941 274.852C164.825 274.24 163.949 273.697 163.373 273.279C162.792 272.869 162.481 272.629 162.501 272.599C162.553 272.52 163.857 273.394 166.11 274.525C168.358 275.659 171.605 276.969 175.361 277.79C179.119 278.598 182.616 278.749 185.132 278.648C187.653 278.552 189.202 278.296 189.217 278.389Z" fill="#263238"/>
<path d="M189.516 266.799C189.563 266.924 187.904 267.572 185.734 267.663C183.564 267.767 181.854 267.271 181.889 267.142C181.918 266.991 183.617 267.245 185.71 267.143C187.804 267.057 189.474 266.651 189.516 266.799Z" fill="#263238"/>
<path d="M197.204 266.253C197.14 266.394 194.846 265.42 191.898 264.609C188.953 263.783 186.485 263.435 186.503 263.282C186.511 263.149 189.042 263.269 192.037 264.108C195.035 264.933 197.266 266.135 197.204 266.253Z" fill="#263238"/>
<path d="M195.715 255.341C195.861 255.39 195.275 257.157 195.251 259.407C195.254 260.523 195.296 261.567 195.537 262.216C195.766 262.891 196.227 263.056 196.196 263.13C196.188 263.159 196.057 263.168 195.849 263.067C195.642 262.968 195.382 262.728 195.201 262.366C194.828 261.631 194.736 260.561 194.731 259.399C194.759 257.039 195.597 255.278 195.715 255.341Z" fill="#263238"/>
<path d="M180.113 288.239C180.112 288.257 179.938 288.263 179.609 288.257C179.22 288.243 178.745 288.226 178.17 288.206C176.922 288.142 175.113 288.046 172.887 287.787C170.665 287.523 168.01 287.102 165.177 286.171C163.765 285.703 162.312 285.095 160.89 284.316C159.465 283.543 158.063 282.633 156.627 281.718C150.169 277.594 144.418 273.879 140.705 271.44L140.617 271.382L140.63 271.284C140.869 269.402 141.924 268.204 142.684 267.595C143.075 267.283 143.416 267.102 143.648 266.989C143.885 266.886 144.012 266.845 144.018 266.859C144.04 266.901 143.53 267.091 142.8 267.732C142.098 268.362 141.138 269.549 140.96 271.317L140.884 271.161C144.659 273.503 150.45 277.156 156.908 281.28C158.346 282.197 159.737 283.102 161.135 283.869C162.529 284.641 163.945 285.244 165.331 285.717C168.109 286.658 170.731 287.114 172.934 287.423C175.141 287.727 176.943 287.879 178.185 288.005C178.757 288.064 179.229 288.114 179.616 288.154C179.943 288.192 180.114 288.221 180.113 288.239Z" fill="#263238"/>
<path d="M174.635 293.758C174.63 293.791 174.087 293.74 173.115 293.591C172.143 293.442 170.74 293.197 169.02 292.823C165.588 292.055 160.86 290.854 155.884 288.769C153.405 287.706 151.169 286.361 149.363 284.869C147.548 283.387 146.097 281.857 144.928 280.541C143.761 279.222 142.875 278.108 142.267 277.336C141.662 276.562 141.344 276.12 141.371 276.098C141.399 276.075 141.77 276.472 142.423 277.206C143.078 277.938 144.006 279.013 145.201 280.293C146.397 281.569 147.863 283.057 149.664 284.495C151.457 285.942 153.644 287.24 156.092 288.291C161.007 290.351 165.713 291.61 169.104 292.464C170.806 292.883 172.194 293.181 173.152 293.392C174.111 293.601 174.642 293.72 174.635 293.758Z" fill="#263238"/>
<path d="M186.6 262.58C186.599 262.616 186.074 262.631 185.126 262.626C184.081 262.609 182.733 262.586 181.113 262.559C177.725 262.48 173.047 262.334 167.881 262.142C165.299 261.992 162.863 262.095 160.623 262.244C160.064 262.275 159.519 262.306 158.987 262.336C158.426 262.337 158.027 262.416 157.604 262.667C156.783 263.133 156.167 263.847 155.636 264.481C154.588 265.788 153.919 266.989 153.469 267.815C153.024 268.647 152.807 269.125 152.769 269.109C152.74 269.098 152.894 268.593 153.287 267.725C153.686 266.862 154.31 265.623 155.346 264.254C155.878 263.586 156.48 262.836 157.389 262.293C157.612 262.153 157.869 262.048 158.142 261.972C158.437 261.908 158.698 261.894 158.959 261.88C159.489 261.843 160.033 261.805 160.59 261.766C162.818 261.591 165.314 261.472 167.898 261.623C173.064 261.816 177.74 262.019 181.125 262.193C182.742 262.287 184.089 262.365 185.132 262.425C186.079 262.49 186.601 262.544 186.6 262.58Z" fill="#455A64"/>
<path d="M38.5988 169.607C38.4618 169.65 37.1778 165.958 35.7308 161.362C34.2838 156.764 33.2218 153.003 33.3598 152.96C33.4968 152.917 34.7808 156.608 36.2278 161.206C37.6738 165.802 38.7358 169.564 38.5988 169.607Z" fill="#263238"/>
<path d="M189.003 144.94C189.076 144.954 188.96 145.888 188.752 147.392C188.525 149.085 188.258 151.072 187.963 153.267C187.709 155.468 187.478 157.46 187.282 159.157C187.114 160.666 186.996 161.6 186.922 161.595C186.852 161.591 186.84 160.648 186.915 159.127C186.989 157.606 187.159 155.508 187.446 153.202C187.735 150.897 188.086 148.822 188.389 147.33C188.691 145.838 188.935 144.927 189.003 144.94Z" fill="#263238"/>
</svg>
